<?xml version="1.0" encoding="UTF-8"?><svg id="Layer_2" xmlns="http://www.w3.org/2000/svg" viewBox="0 0 151.31 44.98"><defs><style>.cls-1{fill:aqua;}.cls-2{fill:#f15a24;}.cls-3{fill:blue;}.cls-4{fill:#fff;font-family:SegoeUIVariable, 'Segoe UI Variable';font-size:39px;font-variation-settings:'wght' 400, 'opsz' 10;}.cls-5{fill:lime;}.cls-6{fill:#f0f;}.cls-7{fill:#ed1c24;}.cls-8{fill:#fbb03b;}.cls-9{fill:red;}.cls-10{fill:#ff0;}</style></defs><g id="Layer_1-2"><g><text class="cls-4" transform="translate(0 33.15)"><tspan x="0" y="0">Abstract</tspan></text><g><rect class="cls-9" x="144.42" y="30.71" width="1.71" height="1.71" transform="translate(24.72 118.56) rotate(-48.08)"/><rect class="cls-10" x="145.56" y="29.44" width="1.71" height="1.71" transform="translate(26.05 118.99) rotate(-48.08)"/><rect class="cls-3" x="146.83" y="30.58" width="1.71" height="1.71" transform="translate(25.62 120.32) rotate(-48.08)"/><rect class="cls-1" x="145.69" y="31.86" width="1.71" height="1.71" transform="translate(24.29 119.89) rotate(-48.08)"/><rect class="cls-5" x="146.7" y="28.17" width="1.71" height="1.71" transform="translate(27.37 119.42) rotate(-48.08)"/><rect class="cls-6" x="147.97" y="29.31" width="1.71" height="1.71" transform="translate(26.94 120.74) rotate(-48.08)"/><rect class="cls-7" x="148.1" y="31.73" width="1.71" height="1.71" transform="translate(25.19 121.64) rotate(-48.08)"/><rect class="cls-8" x="146.96" y="33" width="1.71" height="1.71" transform="translate(23.86 121.21) rotate(-48.08)"/><rect class="cls-2" x="149.24" y="30.45" width="1.71" height="1.71" transform="translate(26.52 122.07) rotate(-48.08)"/></g></g></g></svg>